<?xml version="1.0" encoding="UTF-8" standalone="no"?>
<svg
   height="48"
   width="48"
   version="1.1"
   id="svg12"
   sodipodi:docname="menu_FILL0_wght400_GRAD0_opsz48_white.svg"
   inkscape:version="1.2.1 (9c6d41e410, 2022-07-14)"
   xmlns:inkscape="http://www.inkscape.org/namespaces/inkscape"
   xmlns:sodipodi="http://sodipodi.sourceforge.net/DTD/sodipodi-0.dtd"
   xmlns="http://www.w3.org/2000/svg"
   xmlns:svg="http://www.w3.org/2000/svg">
  <defs
     id="defs16" />
  <sodipodi:namedview
     id="namedview14"
     pagecolor="#ffffff"
     bordercolor="#000000"
     borderopacity="0.25"
     inkscape:showpageshadow="2"
     inkscape:pageopacity="0.0"
     inkscape:pagecheckerboard="0"
     inkscape:deskcolor="#d1d1d1"
     showgrid="false"
     inkscape:zoom="16.75"
     inkscape:cx="24"
     inkscape:cy="24.029851"
     inkscape:window-width="1920"
     inkscape:window-height="991"
     inkscape:window-x="-9"
     inkscape:window-y="-9"
     inkscape:window-maximized="1"
     inkscape:current-layer="svg12" />
  <path
     d="M7.5 36q-.65 0-1.075-.425Q6 35.15 6 34.5q0-.65.425-1.075Q6.85 33 7.5 33h33q.65 0 1.075.425Q42 33.85 42 34.5q0 .65-.425 1.075Q41.15 36 40.5 36Zm0-10.5q-.65 0-1.075-.425Q6 24.65 6 24q0-.65.425-1.075Q6.85 22.5 7.5 22.5h33q.65 0 1.075.425Q42 23.35 42 24q0 .65-.425 1.075-.425.425-1.075.425Zm0-10.5q-.65 0-1.075-.425Q6 14.15 6 13.5q0-.65.425-1.075Q6.85 12 7.5 12h33q.65 0 1.075.425Q42 12.85 42 13.5q0 .65-.425 1.075Q41.15 15 40.5 15Z"
     id="path10"
     style="fill:#ffffff" />
</svg>
